<?xml version="1.0" encoding="UTF-8"?>
<!DOCTYPE svg PUBLIC "-//W3C//DTD SVG 1.1//EN" "http://www.w3.org/Graphics/SVG/1.1/DTD/svg11.dtd">
<svg xmlns="http://www.w3.org/2000/svg" version="1.1" width="500px" height="500px" style="shape-rendering:geometricPrecision; text-rendering:geometricPrecision; image-rendering:optimizeQuality; fill-rule:evenodd; clip-rule:evenodd" xmlns:xlink="http://www.w3.org/1999/xlink">
<g><path style="opacity:1" fill="#67e9fc" d="M 395.5,143.5 C 394.448,143.351 393.448,143.517 392.5,144C 392.5,146.333 392.5,148.667 392.5,151C 395.059,152.323 395.725,154.157 394.5,156.5C 393.252,155.96 392.085,155.293 391,154.5C 389.93,151.124 388.764,147.79 387.5,144.5C 387.818,143.353 388.484,142.519 389.5,142C 388.333,141.5 387.5,140.667 387,139.5C 385.455,139.366 383.788,139.7 382,140.5C 380.739,140.241 379.739,139.574 379,138.5C 378.506,140.134 378.34,141.801 378.5,143.5C 377.5,143.5 376.5,143.5 375.5,143.5C 375.5,148.833 375.5,154.167 375.5,159.5C 370.821,159.334 366.155,159.501 361.5,160C 357.624,162.408 353.957,164.908 350.5,167.5C 350.5,165.833 350.5,164.167 350.5,162.5C 351.978,162.762 353.311,162.429 354.5,161.5C 352.58,158.661 350.913,155.661 349.5,152.5C 350.054,150.39 350.888,148.39 352,146.5C 357.072,147.471 362.238,147.805 367.5,147.5C 367.5,144.833 367.5,142.167 367.5,139.5C 362.5,139.5 357.5,139.5 352.5,139.5C 352.5,140.833 352.5,142.167 352.5,143.5C 351.178,143.67 350.011,143.337 349,142.5C 348.747,139.8 348.747,137.133 349,134.5C 347.989,135.337 346.822,135.67 345.5,135.5C 344.833,138.167 344.167,140.833 343.5,143.5C 342.71,142.391 342.21,141.058 342,139.5C 341.16,142.464 340.16,142.797 339,140.5C 338.289,138.101 338.456,135.768 339.5,133.5C 337.275,131.438 336.942,129.105 338.5,126.5C 337.509,125.335 336.509,124.168 335.5,123C 336.921,121.581 337.921,119.914 338.5,118C 336.013,113.64 334.846,108.807 335,103.5C 334.667,103.167 334.333,102.833 334,102.5C 331.904,105.014 329.404,105.681 326.5,104.5C 325.5,102.167 323.833,100.5 321.5,99.5C 320.319,97.8647 320.319,96.198 321.5,94.5C 319.234,93.6858 316.9,93.1858 314.5,93C 310.6,89.0924 306.433,85.5924 302,82.5C 297.623,81.2194 293.289,81.2194 289,82.5C 286.843,80.8688 284.343,80.3688 281.5,81C 280.541,79.5362 279.208,78.7028 277.5,78.5C 274.324,79.7557 271.158,81.089 268,82.5C 266.609,79.7972 264.609,79.1306 262,80.5C 260.189,79.9221 258.355,79.4221 256.5,79C 257.167,78 257.833,77 258.5,76C 260.833,75.6667 263.167,75.3333 265.5,75C 263.026,73.7327 260.359,72.8994 257.5,72.5C 252.278,73.0917 247.112,73.7583 242,74.5C 241.346,73.3044 240.846,73.3044 240.5,74.5C 241.376,75.2508 242.376,75.7508 243.5,76C 242.234,76.3095 241.067,76.8095 240,77.5C 238.475,76.2799 236.641,75.6132 234.5,75.5C 231.989,75.288 229.822,75.9546 228,77.5C 227,77.1667 226,76.8333 225,76.5C 221.853,77.2776 218.687,78.1109 215.5,79C 217.9,79.1858 220.234,79.6858 222.5,80.5C 220.955,81.4519 219.288,81.7852 217.5,81.5C 217.62,84.2048 216.62,84.8715 214.5,83.5C 212.291,84.1062 210.124,84.7728 208,85.5C 207.91,87.7681 209.077,89.2681 211.5,90C 211.07,90.9195 210.736,91.7528 210.5,92.5C 205.452,92.5 202.118,90.1667 200.5,85.5C 198.936,88.1355 197.603,87.9689 196.5,85C 195.101,84.4054 193.768,84.5721 192.5,85.5C 191.252,84.9598 190.085,84.2931 189,83.5C 185.255,84.297 181.421,84.797 177.5,85C 180.544,85.3589 180.878,86.0255 178.5,87C 182.211,87.1747 185.878,87.6747 189.5,88.5C 185.328,90.4409 180.995,90.4409 176.5,88.5C 174.47,88.8936 172.137,89.2269 169.5,89.5C 169.5,88.5 169.5,87.5 169.5,86.5C 167.833,86.5 166.167,86.5 164.5,86.5C 183.315,75.6168 203.648,68.7835 225.5,66C 285.043,59.6223 335.876,77.4556 378,119.5C 384.076,127.396 389.909,135.396 395.5,143.5 Z"/></g>
<g><path style="opacity:1" fill="#031032" d="M 341.5,164.5 C 341.5,177.833 341.5,191.167 341.5,204.5C 340.883,204.611 340.383,204.944 340,205.5C 339.828,200.798 339.328,196.132 338.5,191.5C 337.833,194.167 337.167,196.833 336.5,199.5C 335.914,199.291 335.414,198.957 335,198.5C 334.685,195.628 334.185,192.795 333.5,190C 334.783,187.995 335.783,185.828 336.5,183.5C 335.487,180.54 334.154,177.873 332.5,175.5C 330.856,175.714 329.356,175.38 328,174.5C 327.333,169.833 327.333,165.167 328,160.5C 329.096,156.976 329.929,153.31 330.5,149.5C 331.5,150.833 332.5,152.167 333.5,153.5C 332.135,155.751 332.469,157.751 334.5,159.5C 335.5,159.167 336.167,158.5 336.5,157.5C 335.738,152.997 335.571,148.33 336,143.5C 335,141.833 334,140.167 333,138.5C 330.359,141.318 326.859,142.318 322.5,141.5C 322.672,140.508 322.338,139.842 321.5,139.5C 312.751,118.586 297.418,104.753 275.5,98C 253.828,91.1709 233.828,94.3376 215.5,107.5C 216.188,108.855 217.188,109.855 218.5,110.5C 219.075,112.411 220.075,114.078 221.5,115.5C 225.483,121.151 227.483,127.484 227.5,134.5C 227.5,139.833 227.5,145.167 227.5,150.5C 231.514,150.334 235.514,150.501 239.5,151C 242.495,152.498 245.495,153.998 248.5,155.5C 255.874,162.054 262.207,169.554 267.5,178C 255.995,187.92 242.661,192.42 227.5,191.5C 230.977,190.677 234.644,190.177 238.5,190C 236.333,189.167 234.833,187.667 234,185.5C 230.729,186.525 227.729,186.525 225,185.5C 224.517,184.552 224.351,183.552 224.5,182.5C 222.143,182.337 219.81,182.503 217.5,183C 217.833,183.333 218.167,183.667 218.5,184C 215.378,185.421 215.044,187.087 217.5,189C 215.817,192.892 214.817,197.059 214.5,201.5C 214.987,202.446 215.32,203.446 215.5,204.5C 214.554,209.125 213.887,213.791 213.5,218.5C 213.477,258.149 213.643,297.815 214,337.5C 215.688,338.325 215.855,339.325 214.5,340.5C 215.325,341.386 216.325,341.719 217.5,341.5C 217.051,339.023 217.717,337.023 219.5,335.5C 221.283,337.023 221.949,339.023 221.5,341.5C 253.355,341.158 284.521,341.158 315,341.5C 316.728,341.546 318.228,341.046 319.5,340C 314.467,339.829 309.467,339.329 304.5,338.5C 314.817,337.334 325.151,337.168 335.5,338C 333.833,338.333 332.167,338.667 330.5,339C 339.811,340.811 347.811,344.977 354.5,351.5C 355.127,352.417 355.461,353.417 355.5,354.5C 350.435,349.281 344.435,345.448 337.5,343C 294.835,342.5 252.168,342.333 209.5,342.5C 209.832,290.331 209.499,238.331 208.5,186.5C 203.929,184.262 199.929,181.262 196.5,177.5C 200.524,172.481 204.524,167.481 208.5,162.5C 209.658,153.009 209.825,143.342 209,133.5C 203.019,117.375 191.519,111.208 174.5,115C 165.776,117.9 159.442,123.4 155.5,131.5C 155.65,128.541 154.65,126.041 152.5,124C 154.283,122.933 154.783,121.433 154,119.5C 149.988,121.608 146.154,124.608 142.5,128.5C 141.975,130.988 141.142,133.321 140,135.5C 140.905,132.242 139.738,131.242 136.5,132.5C 141.256,116.569 151.256,105.069 166.5,98C 179.333,93.1493 192,93.6493 204.5,99.5C 233.751,81.5326 264.084,79.6993 295.5,94C 322.749,109.651 338.082,133.151 341.5,164.5 Z"/></g>
<g><path style="opacity:1" fill="#064581" d="M 307.5,122.5 C 312.709,127.895 317.209,133.895 321,140.5C 321.399,140.272 321.565,139.938 321.5,139.5C 322.338,139.842 322.672,140.508 322.5,141.5C 326.139,152.618 326.973,163.951 325,175.5C 323.468,179.762 322.135,184.095 321,188.5C 315.031,198.945 308.531,208.945 301.5,218.5C 299.291,219.896 297.791,221.896 297,224.5C 295.644,223.62 294.144,223.286 292.5,223.5C 292.11,226.839 291.61,230.173 291,233.5C 290.578,235.426 289.411,236.426 287.5,236.5C 288.425,230.558 290.258,224.891 293,219.5C 299.191,209.119 304.857,198.452 310,187.5C 314.347,175.396 314.514,163.396 310.5,151.5C 302.828,131.662 288.495,123.828 267.5,128C 256.095,133.639 249.761,142.806 248.5,155.5C 245.495,153.998 242.495,152.498 239.5,151C 235.514,150.501 231.514,150.334 227.5,150.5C 227.5,145.167 227.5,139.833 227.5,134.5C 228.324,138.312 228.824,142.312 229,146.5C 237.736,129.846 251.236,119.346 269.5,115C 276.167,114.333 282.833,114.333 289.5,115C 290.108,115.87 290.941,116.37 292,116.5C 294.099,115.713 296.266,115.38 298.5,115.5C 298.5,116.833 298.5,118.167 298.5,119.5C 300.199,119.34 301.866,119.506 303.5,120C 304.308,121.706 305.641,122.539 307.5,122.5 Z"/></g>
<g><path style="opacity:1" fill="#fdfdfb" d="M 208.5,162.5 C 206.374,161.952 204.374,161.285 202.5,160.5C 204.298,147.798 198.965,142.965 186.5,146C 190.939,146.808 192.273,149.308 190.5,153.5C 186.311,154.835 184.144,153.168 184,148.5C 182.092,151.206 181.259,154.206 181.5,157.5C 181.5,159.5 181.5,161.5 181.5,163.5C 180.654,169.876 179.654,176.376 178.5,183C 179.784,246.565 179.784,309.732 178.5,372.5C 170.139,381.193 161.806,389.86 153.5,398.5C 153.333,311.499 153.5,224.499 154,137.5C 154.41,136.099 154.91,134.766 155.5,133.5C 155.5,132.833 155.5,132.167 155.5,131.5C 159.442,123.4 165.776,117.9 174.5,115C 191.519,111.208 203.019,117.375 209,133.5C 209.825,143.342 209.658,153.009 208.5,162.5 Z"/></g>
<g><path style="opacity:1" fill="#6aeafb" d="M 343.5,143.5 C 343.149,145.869 342.982,148.203 343,150.5C 343.414,150.043 343.914,149.709 344.5,149.5C 345.305,152.304 345.972,155.138 346.5,158C 345.833,159.333 345.167,160.667 344.5,162C 346.022,165.824 346.689,169.824 346.5,174C 345.362,183.329 344.029,192.496 342.5,201.5C 342.829,188.989 342.495,176.655 341.5,164.5C 338.082,133.151 322.749,109.651 295.5,94C 264.084,79.6993 233.751,81.5326 204.5,99.5C 192,93.6493 179.333,93.1493 166.5,98C 151.256,105.069 141.256,116.569 136.5,132.5C 135.596,133.209 135.263,134.209 135.5,135.5C 134.668,162.33 134.168,189.33 134,216.5C 115.174,226.748 95.0075,231.748 73.5,231.5C 73.5,228.5 73.5,225.5 73.5,222.5C 80.4266,169.788 105.093,127.621 147.5,96C 152.898,92.3022 158.565,89.1355 164.5,86.5C 166.167,86.5 167.833,86.5 169.5,86.5C 169.5,87.5 169.5,88.5 169.5,89.5C 172.137,89.2269 174.47,88.8936 176.5,88.5C 180.995,90.4409 185.328,90.4409 189.5,88.5C 185.878,87.6747 182.211,87.1747 178.5,87C 180.878,86.0255 180.544,85.3589 177.5,85C 181.421,84.797 185.255,84.297 189,83.5C 190.085,84.2931 191.252,84.9598 192.5,85.5C 193.768,84.5721 195.101,84.4054 196.5,85C 197.603,87.9689 198.936,88.1355 200.5,85.5C 202.118,90.1667 205.452,92.5 210.5,92.5C 210.736,91.7528 211.07,90.9195 211.5,90C 209.077,89.2681 207.91,87.7681 208,85.5C 210.124,84.7728 212.291,84.1062 214.5,83.5C 216.62,84.8715 217.62,84.2048 217.5,81.5C 219.288,81.7852 220.955,81.4519 222.5,80.5C 220.234,79.6858 217.9,79.1858 215.5,79C 218.687,78.1109 221.853,77.2776 225,76.5C 226,76.8333 227,77.1667 228,77.5C 229.822,75.9546 231.989,75.288 234.5,75.5C 236.641,75.6132 238.475,76.2799 240,77.5C 241.067,76.8095 242.234,76.3095 243.5,76C 242.376,75.7508 241.376,75.2508 240.5,74.5C 240.846,73.3044 241.346,73.3044 242,74.5C 247.112,73.7583 252.278,73.0917 257.5,72.5C 260.359,72.8994 263.026,73.7327 265.5,75C 263.167,75.3333 260.833,75.6667 258.5,76C 257.833,77 257.167,78 256.5,79C 258.355,79.4221 260.189,79.9221 262,80.5C 264.609,79.1306 266.609,79.7972 268,82.5C 271.158,81.089 274.324,79.7557 277.5,78.5C 279.208,78.7028 280.541,79.5362 281.5,81C 284.343,80.3688 286.843,80.8688 289,82.5C 293.289,81.2194 297.623,81.2194 302,82.5C 306.433,85.5924 310.6,89.0924 314.5,93C 316.9,93.1858 319.234,93.6858 321.5,94.5C 320.319,96.198 320.319,97.8647 321.5,99.5C 323.833,100.5 325.5,102.167 326.5,104.5C 329.404,105.681 331.904,105.014 334,102.5C 334.333,102.833 334.667,103.167 335,103.5C 334.846,108.807 336.013,113.64 338.5,118C 337.921,119.914 336.921,121.581 335.5,123C 336.509,124.168 337.509,125.335 338.5,126.5C 336.942,129.105 337.275,131.438 339.5,133.5C 338.456,135.768 338.289,138.101 339,140.5C 340.16,142.797 341.16,142.464 342,139.5C 342.21,141.058 342.71,142.391 343.5,143.5 Z"/></g>
<g><path style="opacity:1" fill="#e2f1f5" d="M 321.5,139.5 C 321.565,139.938 321.399,140.272 321,140.5C 317.209,133.895 312.709,127.895 307.5,122.5C 301.741,115.785 294.741,110.785 286.5,107.5C 280.41,103.744 273.743,101.244 266.5,100C 252.68,98.1279 239.347,99.7945 226.5,105C 223.379,106.306 220.713,108.14 218.5,110.5C 217.188,109.855 216.188,108.855 215.5,107.5C 233.828,94.3376 253.828,91.1709 275.5,98C 297.418,104.753 312.751,118.586 321.5,139.5 Z"/></g>
<g><path style="opacity:1" fill="#167fb8" d="M 279.5,105.5 C 278.686,107.273 277.352,107.773 275.5,107C 277.595,106.444 277.762,105.944 276,105.5C 274.343,106.484 272.677,107.484 271,108.5C 265.728,108.622 260.061,108.622 254,108.5C 251.232,111.088 249.232,110.755 248,107.5C 247.308,108.025 246.808,108.692 246.5,109.5C 240.18,110.562 234.18,112.562 228.5,115.5C 227.808,114.975 227.308,114.308 227,113.5C 225.275,114.464 223.441,115.131 221.5,115.5C 220.075,114.078 219.075,112.411 218.5,110.5C 220.4,112.025 222.233,113.025 224,113.5C 229.689,113.813 233.023,111.146 234,105.5C 234.483,106.448 234.649,107.448 234.5,108.5C 240.366,106.565 246.366,104.731 252.5,103C 254.667,102.833 256.833,102.667 259,102.5C 263.784,103.407 268.617,103.574 273.5,103C 275.641,103.573 277.641,104.406 279.5,105.5 Z"/></g>
<g><path style="opacity:1" fill="#2e96c1" d="M 286.5,107.5 C 283.921,107.606 281.588,106.939 279.5,105.5C 277.641,104.406 275.641,103.573 273.5,103C 268.617,103.574 263.784,103.407 259,102.5C 256.833,102.667 254.667,102.833 252.5,103C 246.366,104.731 240.366,106.565 234.5,108.5C 234.649,107.448 234.483,106.448 234,105.5C 233.023,111.146 229.689,113.813 224,113.5C 222.233,113.025 220.4,112.025 218.5,110.5C 220.713,108.14 223.379,106.306 226.5,105C 239.347,99.7945 252.68,98.1279 266.5,100C 273.743,101.244 280.41,103.744 286.5,107.5 Z"/></g>
<g><path style="opacity:1" fill="#0c5e9a" d="M 279.5,105.5 C 281.588,106.939 283.921,107.606 286.5,107.5C 294.741,110.785 301.741,115.785 307.5,122.5C 305.641,122.539 304.308,121.706 303.5,120C 301.866,119.506 300.199,119.34 298.5,119.5C 298.5,118.167 298.5,116.833 298.5,115.5C 296.266,115.38 294.099,115.713 292,116.5C 290.941,116.37 290.108,115.87 289.5,115C 282.833,114.333 276.167,114.333 269.5,115C 251.236,119.346 237.736,129.846 229,146.5C 228.824,142.312 228.324,138.312 227.5,134.5C 227.483,127.484 225.483,121.151 221.5,115.5C 223.441,115.131 225.275,114.464 227,113.5C 227.308,114.308 227.808,114.975 228.5,115.5C 234.18,112.562 240.18,110.562 246.5,109.5C 246.808,108.692 247.308,108.025 248,107.5C 249.232,110.755 251.232,111.088 254,108.5C 260.061,108.622 265.728,108.622 271,108.5C 272.677,107.484 274.343,106.484 276,105.5C 277.762,105.944 277.595,106.444 275.5,107C 277.352,107.773 278.686,107.273 279.5,105.5 Z"/></g>
<g><path style="opacity:1" fill="#cefdfe" d="M 347.5,121.5 C 352.123,120.408 353.956,122.075 353,126.5C 348.688,127.981 346.855,126.315 347.5,121.5 Z"/></g>
<g><path style="opacity:0.985" fill="#010f35" d="M 155.5,131.5 C 155.5,132.167 155.5,132.833 155.5,133.5C 154.5,133.5 153.5,133.5 152.5,133.5C 152.167,222.335 152.501,311.002 153.5,399.5C 153.5,401.5 153.5,403.5 153.5,405.5C 161.323,406.656 169.323,406.823 177.5,406C 179.995,401.352 182.662,396.852 185.5,392.5C 199.728,379.933 215.395,378.099 232.5,387C 234.037,388.707 235.704,390.207 237.5,391.5C 239.113,394.286 240.946,396.953 243,399.5C 244.517,397.76 246.017,396.094 247.5,394.5C 248.7,396.335 249.7,398.169 250.5,400C 250.241,401.261 249.574,402.261 248.5,403C 252.304,404.494 251.971,405.328 247.5,405.5C 247.833,408.167 248.167,410.833 248.5,413.5C 245.722,413.022 243.722,414.022 242.5,416.5C 240.517,416.185 239.184,415.185 238.5,413.5C 239.056,409.104 237.39,406.104 233.5,404.5C 233.167,403.5 232.5,402.833 231.5,402.5C 231.167,401.5 230.5,400.833 229.5,400.5C 227.882,398.215 225.882,396.215 223.5,394.5C 223.5,393.5 223.5,392.5 223.5,391.5C 215.588,389.95 207.754,390.283 200,392.5C 196.684,394.65 193.85,397.316 191.5,400.5C 188.005,398.135 187.672,398.802 190.5,402.5C 189.675,403.386 188.675,403.719 187.5,403.5C 187.524,407.529 186.857,411.362 185.5,415C 185.295,419.292 187.295,421.459 191.5,421.5C 191.5,420.5 191.5,419.5 191.5,418.5C 199.373,419.775 207.207,419.441 215,417.5C 218.918,416.959 222.251,417.959 225,420.5C 229.658,418.917 234.158,419.25 238.5,421.5C 243.938,419.612 249.605,418.946 255.5,419.5C 255.5,418.5 255.5,417.5 255.5,416.5C 270.182,416.833 284.848,416.499 299.5,415.5C 299.833,412.167 300.167,408.833 300.5,405.5C 299.68,403.889 298.346,403.222 296.5,403.5C 296.454,398.419 293.787,395.419 288.5,394.5C 287.352,392.851 286.019,391.351 284.5,390C 281.183,389.502 277.85,389.335 274.5,389.5C 274.725,387.284 273.892,385.617 272,384.5C 270.272,386.194 270.772,387.361 273.5,388C 272.045,389.626 270.378,390.792 268.5,391.5C 263.181,390.843 258.014,390.843 253,391.5C 252.536,390.906 252.369,390.239 252.5,389.5C 258.253,383.799 265.253,381.132 273.5,381.5C 284.277,381.645 293.61,385.312 301.5,392.5C 301.5,392.833 301.5,393.167 301.5,393.5C 304.469,397.267 306.802,401.434 308.5,406C 313.489,406.499 318.489,406.666 323.5,406.5C 328.363,406.819 333.03,406.486 337.5,405.5C 349.201,402.972 357.035,395.972 361,384.5C 362.228,375.894 361.395,367.561 358.5,359.5C 358.579,358.07 358.246,356.736 357.5,355.5C 358.531,354.3 359.365,352.966 360,351.5C 359.918,354.942 360.918,358.275 363,361.5C 363.353,360.328 363.187,359.162 362.5,358C 363.5,356.333 364.5,354.667 365.5,353C 364.082,347.393 365.249,346.559 369,350.5C 369.667,347.833 370.333,347.833 371,350.5C 371.667,349.167 372.333,349.167 373,350.5C 373.304,348.559 374.137,346.893 375.5,345.5C 374.313,344.481 373.313,343.314 372.5,342C 373.167,341.667 373.833,341.333 374.5,341C 366.39,339.988 365.723,337.654 372.5,334C 370.559,333.257 368.726,333.424 367,334.5C 363.142,331.303 359.309,328.137 355.5,325C 351.56,322.409 347.227,320.909 342.5,320.5C 339.352,319.424 336.352,318.091 333.5,316.5C 326.896,311.565 320.896,305.898 315.5,299.5C 315.292,298.064 316.125,296.73 318,295.5C 319.299,295.966 320.799,295.966 322.5,295.5C 322.5,293.833 322.5,292.167 322.5,290.5C 325.968,294.141 329.302,297.974 332.5,302C 336.663,303.922 340.33,306.588 343.5,310C 351.458,313.431 359.124,317.431 366.5,322C 368.813,322.662 371.146,323.162 373.5,323.5C 375.395,300.648 369.229,280.315 355,262.5C 347.636,255.967 340.47,249.3 333.5,242.5C 328.428,239.602 323.761,236.102 319.5,232C 318.216,231.316 317.049,231.483 316,232.5C 309.713,245.516 308.88,258.849 313.5,272.5C 313.878,274.921 314.545,277.254 315.5,279.5C 314.13,279.144 313.13,278.31 312.5,277C 309.216,268.083 307.716,258.916 308,249.5C 309.198,243.713 310.864,238.046 313,232.5C 314.5,231.667 315.667,230.5 316.5,229C 319.941,229.387 322.941,230.887 325.5,233.5C 326.308,233.192 326.975,232.692 327.5,232C 324.716,229.216 325.383,227.549 329.5,227C 326.978,225.31 324.478,225.476 322,227.5C 319.419,226.583 317.086,225.249 315,223.5C 312.757,225.282 310.257,225.782 307.5,225C 309.061,224.059 310.395,222.892 311.5,221.5C 310.726,220.289 309.893,220.289 309,221.5C 308.308,220.975 307.808,220.308 307.5,219.5C 308.763,216.397 310.263,213.397 312,210.5C 312.667,208.833 312.667,207.167 312,205.5C 310.839,209.83 308.673,213.497 305.5,216.5C 304.534,218.396 304.201,220.396 304.5,222.5C 303.5,222.5 302.5,222.5 301.5,222.5C 300.691,227.094 299.191,231.427 297,235.5C 296.385,240.906 295.385,246.239 294,251.5C 293.228,255.89 293.394,260.223 294.5,264.5C 293.833,264.833 293.167,265.167 292.5,265.5C 293.445,270.001 294.445,274.501 295.5,279C 294.803,282.638 295.47,286.138 297.5,289.5C 296.572,290.768 296.405,292.101 297,293.5C 298.115,295 298.948,296.667 299.5,298.5C 303.273,299.449 304.273,301.616 302.5,305C 307.254,308.289 311.587,312.789 315.5,318.5C 315.137,319.183 314.804,319.85 314.5,320.5C 297.465,305.766 287.798,287.099 285.5,264.5C 286.315,265.429 287.148,266.429 288,267.5C 290.333,256.85 292.666,246.183 295,235.5C 297.627,229.979 299.793,224.313 301.5,218.5C 308.531,208.945 315.031,198.945 321,188.5C 322.135,184.095 323.468,179.762 325,175.5C 326.973,163.951 326.139,152.618 322.5,141.5C 326.859,142.318 330.359,141.318 333,138.5C 334,140.167 335,141.833 336,143.5C 335.571,148.33 335.738,152.997 336.5,157.5C 336.167,158.5 335.5,159.167 334.5,159.5C 332.469,157.751 332.135,155.751 333.5,153.5C 332.5,152.167 331.5,150.833 330.5,149.5C 329.929,153.31 329.096,156.976 328,160.5C 327.333,165.167 327.333,169.833 328,174.5C 329.356,175.38 330.856,175.714 332.5,175.5C 334.154,177.873 335.487,180.54 336.5,183.5C 335.783,185.828 334.783,187.995 333.5,190C 334.185,192.795 334.685,195.628 335,198.5C 335.414,198.957 335.914,199.291 336.5,199.5C 337.167,196.833 337.833,194.167 338.5,191.5C 339.328,196.132 339.828,200.798 340,205.5C 340.383,204.944 340.883,204.611 341.5,204.5C 341.181,209.363 341.514,214.03 342.5,218.5C 342.508,223.357 344.008,227.69 347,231.5C 361.298,241.291 372.131,253.958 379.5,269.5C 381.519,274.571 383.519,279.571 385.5,284.5C 387.385,307.607 386.718,330.607 383.5,353.5C 385.167,353.5 386.833,353.5 388.5,353.5C 382.509,373.305 376.009,392.972 369,412.5C 365.934,418.9 361.434,424.067 355.5,428C 349.968,429.726 344.301,430.726 338.5,431C 329.667,431.167 320.833,431.333 312,431.5C 273.221,431.439 234.388,431.272 195.5,431C 175.723,430.482 156.056,428.815 136.5,426C 129.333,422.833 124.167,417.667 121,410.5C 116.119,388.976 110.619,367.643 104.5,346.5C 106.303,348.481 107.97,350.648 109.5,353C 113.211,353.825 116.878,353.659 120.5,352.5C 117.601,344.001 115.601,335.334 114.5,326.5C 114.5,320.5 114.5,314.5 114.5,308.5C 114.788,295.769 117.122,283.436 121.5,271.5C 125.714,262.071 130.214,252.738 135,243.5C 135.5,207.502 135.667,171.502 135.5,135.5C 135.263,134.209 135.596,133.209 136.5,132.5C 139.738,131.242 140.905,132.242 140,135.5C 141.142,133.321 141.975,130.988 142.5,128.5C 146.154,124.608 149.988,121.608 154,119.5C 154.783,121.433 154.283,122.933 152.5,124C 154.65,126.041 155.65,128.541 155.5,131.5 Z"/></g>
<g><path style="opacity:1" fill="#fcfdfb" d="M 310.5,151.5 C 311.152,161.073 309.986,170.406 307,179.5C 300.538,191.632 292.871,202.966 284,213.5C 281.328,218.203 278.662,222.87 276,227.5C 270.328,241.853 264.661,256.186 259,270.5C 254.716,273.067 250.883,276.234 247.5,280C 240.88,282.828 234.213,285.328 227.5,287.5C 227.5,255.5 227.5,223.5 227.5,191.5C 242.661,192.42 255.995,187.92 267.5,178C 262.207,169.554 255.874,162.054 248.5,155.5C 249.761,142.806 256.095,133.639 267.5,128C 288.495,123.828 302.828,131.662 310.5,151.5 Z"/></g>
<g><path style="opacity:1" fill="#071331" d="M 202.5,160.5 C 196.952,166.339 190.786,167.005 184,162.5C 183.243,160.685 182.41,159.019 181.5,157.5C 181.259,154.206 182.092,151.206 184,148.5C 184.144,153.168 186.311,154.835 190.5,153.5C 192.273,149.308 190.939,146.808 186.5,146C 198.965,142.965 204.298,147.798 202.5,160.5 Z"/></g>
<g><path style="opacity:1" fill="#0f172d" d="M 272.5,144.5 C 283.616,144.446 287.782,149.779 285,160.5C 278.593,167.106 272.259,167.106 266,160.5C 264.228,157.397 264.228,154.397 266,151.5C 271.305,155.888 273.638,154.555 273,147.5C 272.25,146.874 271.416,146.374 270.5,146C 271.416,145.722 272.082,145.222 272.5,144.5 Z"/></g>
<g><path style="opacity:1" fill="#030d33" d="M 276.5,146.5 C 278.802,148.438 281.302,150.105 284,151.5C 285.278,161.221 281.111,165.055 271.5,163C 268.466,161.809 266.799,159.642 266.5,156.5C 268.833,156.5 271.167,156.5 273.5,156.5C 273.753,152.868 274.753,149.534 276.5,146.5 Z"/></g>
<g><path style="opacity:1" fill="#f5f4ed" d="M 237.5,161.5 C 233.645,164.514 229.311,166.681 224.5,168C 221.61,170.275 218.944,172.775 216.5,175.5C 214.435,175.517 212.435,175.85 210.5,176.5C 214.871,167.295 222.038,161.628 232,159.5C 234.221,159.393 236.054,160.06 237.5,161.5 Z"/></g>
<g><path style="opacity:1" fill="#f4d184" d="M 237.5,161.5 C 238.492,161.328 239.158,161.662 239.5,162.5C 239.5,162.833 239.5,163.167 239.5,163.5C 238.766,164.708 238.433,166.041 238.5,167.5C 231.549,171.151 224.216,173.818 216.5,175.5C 218.944,172.775 221.61,170.275 224.5,168C 229.311,166.681 233.645,164.514 237.5,161.5 Z"/></g>
<g><path style="opacity:1" fill="#edaf56" d="M 239.5,163.5 C 240.338,163.842 240.672,164.508 240.5,165.5C 240.607,167.903 239.607,169.736 237.5,171C 230.527,172.891 223.527,174.891 216.5,177C 217.056,177.383 217.389,177.883 217.5,178.5C 214.848,178.59 212.515,177.924 210.5,176.5C 212.435,175.85 214.435,175.517 216.5,175.5C 224.216,173.818 231.549,171.151 238.5,167.5C 238.433,166.041 238.766,164.708 239.5,163.5 Z"/></g>
<g><path style="opacity:1" fill="#af5a1b" d="M 239.5,163.5 C 239.5,163.167 239.5,162.833 239.5,162.5C 244.687,165.173 249.187,168.84 253,173.5C 253.667,174.5 253.667,175.5 253,176.5C 243.418,180.871 233.585,182.204 223.5,180.5C 232.453,180.842 241.119,179.508 249.5,176.5C 249.587,173.402 249.087,173.068 248,175.5C 246.601,174.773 245.101,174.273 243.5,174C 243.833,171.667 244.167,169.333 244.5,167C 243.099,166.59 241.766,166.09 240.5,165.5C 240.672,164.508 240.338,163.842 239.5,163.5 Z"/></g>
<g><path style="opacity:1" fill="#e27308" d="M 240.5,165.5 C 241.766,166.09 243.099,166.59 244.5,167C 244.167,169.333 243.833,171.667 243.5,174C 245.101,174.273 246.601,174.773 248,175.5C 249.087,173.068 249.587,173.402 249.5,176.5C 241.119,179.508 232.453,180.842 223.5,180.5C 221.102,180.741 219.102,180.074 217.5,178.5C 217.389,177.883 217.056,177.383 216.5,177C 223.527,174.891 230.527,172.891 237.5,171C 239.607,169.736 240.607,167.903 240.5,165.5 Z"/></g>
<g><path style="opacity:1" fill="#67edfd" d="M 395.5,143.5 C 413.02,169.054 423.02,197.387 425.5,228.5C 425.5,229.5 425.5,230.5 425.5,231.5C 395.863,233.469 369.53,225.469 346.5,207.5C 344.748,205.754 343.415,203.754 342.5,201.5C 344.029,192.496 345.362,183.329 346.5,174C 346.689,169.824 346.022,165.824 344.5,162C 345.167,160.667 345.833,159.333 346.5,158C 345.972,155.138 345.305,152.304 344.5,149.5C 343.914,149.709 343.414,150.043 343,150.5C 342.982,148.203 343.149,145.869 343.5,143.5C 344.167,140.833 344.833,138.167 345.5,135.5C 346.822,135.67 347.989,135.337 349,134.5C 348.747,137.133 348.747,139.8 349,142.5C 350.011,143.337 351.178,143.67 352.5,143.5C 352.5,142.167 352.5,140.833 352.5,139.5C 357.5,139.5 362.5,139.5 367.5,139.5C 367.5,142.167 367.5,144.833 367.5,147.5C 362.238,147.805 357.072,147.471 352,146.5C 350.888,148.39 350.054,150.39 349.5,152.5C 350.913,155.661 352.58,158.661 354.5,161.5C 353.311,162.429 351.978,162.762 350.5,162.5C 350.5,164.167 350.5,165.833 350.5,167.5C 353.957,164.908 357.624,162.408 361.5,160C 366.155,159.501 370.821,159.334 375.5,159.5C 375.5,154.167 375.5,148.833 375.5,143.5C 376.5,143.5 377.5,143.5 378.5,143.5C 378.34,141.801 378.506,140.134 379,138.5C 379.739,139.574 380.739,140.241 382,140.5C 383.788,139.7 385.455,139.366 387,139.5C 387.5,140.667 388.333,141.5 389.5,142C 388.484,142.519 387.818,143.353 387.5,144.5C 388.764,147.79 389.93,151.124 391,154.5C 392.085,155.293 393.252,155.96 394.5,156.5C 395.725,154.157 395.059,152.323 392.5,151C 392.5,148.667 392.5,146.333 392.5,144C 393.448,143.517 394.448,143.351 395.5,143.5 Z"/></g>
<g><path style="opacity:1" fill="#f2fdfd" d="M 359.5,166.5 C 366.342,166.859 368.676,170.359 366.5,177C 356.226,178.574 353.893,175.074 359.5,166.5 Z"/></g>
<g><path style="opacity:1" fill="#e8fdfd" d="M 109.5,191.5 C 118.203,190.673 120.87,194.34 117.5,202.5C 111.421,205.159 107.754,203.326 106.5,197C 106.863,194.808 107.863,192.974 109.5,191.5 Z"/></g>
<g><path style="opacity:1" fill="#e5fefc" d="M 380.5,197.5 C 386.158,196.679 387.825,198.846 385.5,204C 379.741,205.139 378.074,202.972 380.5,197.5 Z"/></g>
<g><path style="opacity:1" fill="#7de6f9" d="M 181.5,157.5 C 182.41,159.019 183.243,160.685 184,162.5C 190.786,167.005 196.952,166.339 202.5,160.5C 204.374,161.285 206.374,161.952 208.5,162.5C 204.524,167.481 200.524,172.481 196.5,177.5C 199.929,181.262 203.929,184.262 208.5,186.5C 208.831,194.196 208.497,201.862 207.5,209.5C 205.449,212.215 203.783,212.048 202.5,209C 202.833,208.667 203.167,208.333 203.5,208C 202.065,208.311 200.732,208.145 199.5,207.5C 197.97,203.466 195.47,200.133 192,197.5C 191.333,198.833 191.333,200.167 192,201.5C 194.589,203.688 196.422,206.354 197.5,209.5C 194.989,209.162 192.655,209.162 190.5,209.5C 190.167,209 189.833,208.5 189.5,208C 190.296,206.908 190.963,205.741 191.5,204.5C 190.276,198.863 188.443,193.863 186,189.5C 185.055,191.425 184.055,193.758 183,196.5C 182.5,252.166 182.333,307.832 182.5,363.5C 184.167,363.5 185.833,363.5 187.5,363.5C 186.833,364.5 186.167,365.5 185.5,366.5C 184.292,367.234 182.959,367.567 181.5,367.5C 181.5,299.5 181.5,231.5 181.5,163.5C 181.5,161.5 181.5,159.5 181.5,157.5 Z"/></g>
<g><path style="opacity:1" fill="#3ba5d1" d="M 341.5,164.5 C 342.495,176.655 342.829,188.989 342.5,201.5C 343.415,203.754 344.748,205.754 346.5,207.5C 345.5,207.5 344.5,207.5 343.5,207.5C 343.577,211.215 343.244,214.881 342.5,218.5C 341.514,214.03 341.181,209.363 341.5,204.5C 341.5,191.167 341.5,177.833 341.5,164.5 Z"/></g>
<g><path style="opacity:1" fill="#12bcfb" d="M 346.5,207.5 C 369.53,225.469 395.863,233.469 425.5,231.5C 425.5,230.5 425.5,229.5 425.5,228.5C 426.718,241.013 426.718,253.679 425.5,266.5C 421.327,266.123 417.327,265.123 413.5,263.5C 407.346,261.522 401.013,261.022 394.5,262C 389.478,264.511 384.478,267.011 379.5,269.5C 372.131,253.958 361.298,241.291 347,231.5C 344.008,227.69 342.508,223.357 342.5,218.5C 343.244,214.881 343.577,211.215 343.5,207.5C 344.5,207.5 345.5,207.5 346.5,207.5 Z"/></g>
<g><path style="opacity:1" fill="#bbebfc" d="M 310.5,151.5 C 314.514,163.396 314.347,175.396 310,187.5C 304.857,198.452 299.191,209.119 293,219.5C 290.258,224.891 288.425,230.558 287.5,236.5C 286.239,239.258 285.406,242.258 285,245.5C 284.501,251.491 284.334,257.491 284.5,263.5C 284.019,266.782 283.019,269.949 281.5,273C 282.576,274.726 282.743,276.559 282,278.5C 280.106,283.094 278.273,287.761 276.5,292.5C 276.608,293.442 276.941,294.275 277.5,295C 273.767,297.071 271.6,300.238 271,304.5C 270.667,304.167 270.333,303.833 270,303.5C 268.476,306.236 266.309,308.236 263.5,309.5C 262.48,313.063 260.98,316.396 259,319.5C 257.933,320.191 256.766,320.691 255.5,321C 254.748,321.671 254.414,322.504 254.5,323.5C 245.5,323.5 236.5,323.5 227.5,323.5C 227.5,311.5 227.5,299.5 227.5,287.5C 234.213,285.328 240.88,282.828 247.5,280C 250.883,276.234 254.716,273.067 259,270.5C 264.661,256.186 270.328,241.853 276,227.5C 278.662,222.87 281.328,218.203 284,213.5C 292.871,202.966 300.538,191.632 307,179.5C 309.986,170.406 311.152,161.073 310.5,151.5 Z"/></g>
<g><path style="opacity:1" fill="#034d8b" d="M 333.5,242.5 C 334.096,246.229 336.263,248.563 340,249.5C 341.47,253.242 343.97,256.075 347.5,258C 347.272,258.399 346.938,258.565 346.5,258.5C 345.5,258.5 344.5,258.5 343.5,258.5C 343.167,258.5 342.833,258.5 342.5,258.5C 340.307,257.203 337.973,257.203 335.5,258.5C 332.569,266.38 335.235,270.714 343.5,271.5C 340.685,274.217 341.018,276.217 344.5,277.5C 349.918,282.084 353.918,281.084 356.5,274.5C 356.315,273.416 355.982,272.416 355.5,271.5C 356.496,271.414 357.329,271.748 358,272.5C 363.362,282.124 366.528,292.457 367.5,303.5C 353.972,301.936 342.472,296.269 333,286.5C 332.517,285.552 332.351,284.552 332.5,283.5C 331.325,283.719 330.325,283.386 329.5,282.5C 327.62,279.909 325.62,277.409 323.5,275C 322.256,274.544 321.423,275.044 321,276.5C 319.021,275.286 317.521,273.619 316.5,271.5C 315.583,272.127 314.583,272.461 313.5,272.5C 308.88,258.849 309.713,245.516 316,232.5C 317.049,231.483 318.216,231.316 319.5,232C 323.761,236.102 328.428,239.602 333.5,242.5 Z"/></g>
<g><path style="opacity:1" fill="#e8fefe" d="M 181.5,163.5 C 181.5,231.5 181.5,299.5 181.5,367.5C 181.5,368.167 181.5,368.833 181.5,369.5C 180.833,370.833 179.833,371.833 178.5,372.5C 179.784,309.732 179.784,246.565 178.5,183C 179.654,176.376 180.654,169.876 181.5,163.5 Z"/></g>
<g><path style="opacity:1" fill="#4adcfa" d="M 208.5,186.5 C 209.499,238.331 209.832,290.331 209.5,342.5C 202.193,349.472 194.86,356.472 187.5,363.5C 185.833,363.5 184.167,363.5 182.5,363.5C 182.333,307.832 182.5,252.166 183,196.5C 184.055,193.758 185.055,191.425 186,189.5C 188.443,193.863 190.276,198.863 191.5,204.5C 190.963,205.741 190.296,206.908 189.5,208C 189.833,208.5 190.167,209 190.5,209.5C 192.655,209.162 194.989,209.162 197.5,209.5C 196.422,206.354 194.589,203.688 192,201.5C 191.333,200.167 191.333,198.833 192,197.5C 195.47,200.133 197.97,203.466 199.5,207.5C 200.732,208.145 202.065,208.311 203.5,208C 203.167,208.333 202.833,208.667 202.5,209C 203.783,212.048 205.449,212.215 207.5,209.5C 208.497,201.862 208.831,194.196 208.5,186.5 Z"/></g>
<g><path style="opacity:1" fill="#17b6f5" d="M 135.5,135.5 C 135.667,171.502 135.5,207.502 135,243.5C 130.214,252.738 125.714,262.071 121.5,271.5C 120.833,271.5 120.167,271.5 119.5,271.5C 116.298,270.138 113.298,268.304 110.5,266C 104.459,263.729 98.2924,261.895 92,260.5C 85.6702,262.121 79.5035,264.121 73.5,266.5C 70.9279,251.731 70.9279,237.065 73.5,222.5C 73.5,225.5 73.5,228.5 73.5,231.5C 95.0075,231.748 115.174,226.748 134,216.5C 134.168,189.33 134.668,162.33 135.5,135.5 Z"/></g>
<g><path style="opacity:1" fill="#eafcf9" d="M 108.5,235.5 C 114.279,235.112 116.779,237.778 116,243.5C 109.412,248.509 106.078,246.842 106,238.5C 107.045,237.627 107.878,236.627 108.5,235.5 Z"/></g>
<g><path style="opacity:1" fill="#1c5682" d="M 342.5,258.5 C 337.013,257.962 334.847,260.295 336,265.5C 339,269.5 342,269.5 345,265.5C 345.833,262.829 345.333,260.496 343.5,258.5C 344.5,258.5 345.5,258.5 346.5,258.5C 347.388,261.054 347.721,263.721 347.5,266.5C 350.491,266.166 352.824,267.166 354.5,269.5C 347.428,267.378 344.094,270.044 344.5,277.5C 341.018,276.217 340.685,274.217 343.5,271.5C 335.235,270.714 332.569,266.38 335.5,258.5C 337.973,257.203 340.307,257.203 342.5,258.5 Z"/></g>
<g><path style="opacity:1" fill="#e8f8fa" d="M 342.5,258.5 C 342.833,258.5 343.167,258.5 343.5,258.5C 345.333,260.496 345.833,262.829 345,265.5C 342,269.5 339,269.5 336,265.5C 334.847,260.295 337.013,257.962 342.5,258.5 Z"/></g>
<g><path style="opacity:1" fill="#0387dc" d="M 119.5,271.5 C 118.337,277.814 116.504,283.814 114,289.5C 113.935,287.117 113.102,286.45 111.5,287.5C 110.402,289.632 109.402,291.798 108.5,294C 104.54,295.663 100.54,295.83 96.5,294.5C 95.6893,296.391 94.3559,297.724 92.5,298.5C 91.3961,297.369 91.7295,296.535 93.5,296C 92.3855,293.899 92.3855,291.733 93.5,289.5C 90.8541,287.416 91.0207,285.749 94,284.5C 94.2511,282.567 94.7511,280.734 95.5,279C 91.8817,279.335 89.5484,277.835 88.5,274.5C 87.6837,277.451 86.6837,280.284 85.5,283C 86.1513,285.504 87.818,286.837 90.5,287C 89.4097,291.604 87.9097,296.104 86,300.5C 85.6824,298.939 84.8491,297.772 83.5,297C 85.2437,294.037 85.7437,290.871 85,287.5C 84.3333,288.833 83.6667,288.833 83,287.5C 82.0726,290.71 80.906,293.044 79.5,294.5C 76.114,285.578 74.114,276.244 73.5,266.5C 79.5035,264.121 85.6702,262.121 92,260.5C 98.2924,261.895 104.459,263.729 110.5,266C 113.298,268.304 116.298,270.138 119.5,271.5 Z"/></g>
<g><path style="opacity:1" fill="#ecf8f8" d="M 354.5,269.5 C 354.833,270.167 355.167,270.833 355.5,271.5C 355.982,272.416 356.315,273.416 356.5,274.5C 353.918,281.084 349.918,282.084 344.5,277.5C 344.094,270.044 347.428,267.378 354.5,269.5 Z"/></g>
<g><path style="opacity:1" fill="#0c90df" d="M 119.5,271.5 C 120.167,271.5 120.833,271.5 121.5,271.5C 117.122,283.436 114.788,295.769 114.5,308.5C 113.883,308.611 113.383,308.944 113,309.5C 107.229,302.312 100.063,300.645 91.5,304.5C 90.4445,307.986 88.4445,310.653 85.5,312.5C 82.9368,306.703 80.9368,300.703 79.5,294.5C 80.906,293.044 82.0726,290.71 83,287.5C 83.6667,288.833 84.3333,288.833 85,287.5C 85.7437,290.871 85.2437,294.037 83.5,297C 84.8491,297.772 85.6824,298.939 86,300.5C 87.9097,296.104 89.4097,291.604 90.5,287C 87.818,286.837 86.1513,285.504 85.5,283C 86.6837,280.284 87.6837,277.451 88.5,274.5C 89.5484,277.835 91.8817,279.335 95.5,279C 94.7511,280.734 94.2511,282.567 94,284.5C 91.0207,285.749 90.8541,287.416 93.5,289.5C 92.3855,291.733 92.3855,293.899 93.5,296C 91.7295,296.535 91.3961,297.369 92.5,298.5C 94.3559,297.724 95.6893,296.391 96.5,294.5C 100.54,295.83 104.54,295.663 108.5,294C 109.402,291.798 110.402,289.632 111.5,287.5C 113.102,286.45 113.935,287.117 114,289.5C 116.504,283.814 118.337,277.814 119.5,271.5 Z"/></g>
<g><path style="opacity:1" fill="#cbfbfe" d="M 88.5,279.5 C 91.9103,279.384 93.2436,281.05 92.5,284.5C 88.065,285.078 86.7317,283.411 88.5,279.5 Z"/></g>
<g><path style="opacity:1" fill="#0e8ddb" d="M 413.5,263.5 C 417.327,265.123 421.327,266.123 425.5,266.5C 421.076,298.998 408.743,327.998 388.5,353.5C 386.833,353.5 385.167,353.5 383.5,353.5C 386.718,330.607 387.385,307.607 385.5,284.5C 385.281,283.325 385.614,282.325 386.5,281.5C 387.172,284.897 388.005,288.23 389,291.5C 389.146,289.039 390.313,286.706 392.5,284.5C 393.172,287.897 394.005,291.23 395,294.5C 395.667,291.833 396.333,291.833 397,294.5C 397.424,292.385 398.591,291.552 400.5,292C 398.579,293.241 398.246,294.741 399.5,296.5C 400.382,295.24 401.382,294.074 402.5,293C 401.833,291.667 400.833,290.667 399.5,290C 399.913,288.463 399.913,286.796 399.5,285C 399.833,284.5 400.167,284 400.5,283.5C 401.167,284.833 401.833,286.167 402.5,287.5C 403.417,286.873 404.417,286.539 405.5,286.5C 403.732,290.411 405.065,292.078 409.5,291.5C 409.5,290.167 409.5,288.833 409.5,287.5C 410.693,287.97 411.36,288.97 411.5,290.5C 411.004,293.263 409.338,294.93 406.5,295.5C 408.618,297.439 408.951,299.606 407.5,302C 403.548,301.566 399.548,301.566 395.5,302C 392.542,302.229 390.042,303.396 388,305.5C 387.184,314.879 387.517,324.213 389,333.5C 389.333,331.5 389.667,329.5 390,327.5C 390.333,327.833 390.667,328.167 391,328.5C 391.333,327.5 391.667,326.5 392,325.5C 393.131,326.604 393.965,326.271 394.5,324.5C 395.689,323.571 397.022,323.238 398.5,323.5C 398.224,326.852 399.391,329.519 402,331.5C 402.333,328.833 402.667,326.167 403,323.5C 403.308,324.308 403.808,324.975 404.5,325.5C 404.927,322.442 406.26,319.942 408.5,318C 409.474,315.579 410.14,313.079 410.5,310.5C 409.129,308.319 408.129,305.986 407.5,303.5C 409.167,303.5 410.833,303.5 412.5,303.5C 412.838,300.989 412.838,298.655 412.5,296.5C 414.044,295.378 415.377,295.711 416.5,297.5C 417.689,294.702 417.356,292.036 415.5,289.5C 418.327,283.714 418.994,277.714 417.5,271.5C 418.833,271.5 420.167,271.5 421.5,271.5C 421.5,270.167 421.5,268.833 421.5,267.5C 419.876,267.36 418.71,268.027 418,269.5C 416.283,267.623 414.783,265.623 413.5,263.5 Z"/></g>
<g><path style="opacity:1" fill="#063572" d="M 333.5,242.5 C 340.47,249.3 347.636,255.967 355,262.5C 369.229,280.315 375.395,300.648 373.5,323.5C 371.146,323.162 368.813,322.662 366.5,322C 359.124,317.431 351.458,313.431 343.5,310C 340.33,306.588 336.663,303.922 332.5,302C 329.302,297.974 325.968,294.141 322.5,290.5C 320.499,287.832 318.999,284.832 318,281.5C 317.292,280.619 316.458,279.953 315.5,279.5C 314.545,277.254 313.878,274.921 313.5,272.5C 314.583,272.461 315.583,272.127 316.5,271.5C 317.521,273.619 319.021,275.286 321,276.5C 321.423,275.044 322.256,274.544 323.5,275C 325.62,277.409 327.62,279.909 329.5,282.5C 330.325,283.386 331.325,283.719 332.5,283.5C 332.351,284.552 332.517,285.552 333,286.5C 342.472,296.269 353.972,301.936 367.5,303.5C 366.528,292.457 363.362,282.124 358,272.5C 357.329,271.748 356.496,271.414 355.5,271.5C 355.167,270.833 354.833,270.167 354.5,269.5C 352.824,267.166 350.491,266.166 347.5,266.5C 347.721,263.721 347.388,261.054 346.5,258.5C 346.938,258.565 347.272,258.399 347.5,258C 343.97,256.075 341.47,253.242 340,249.5C 336.263,248.563 334.096,246.229 333.5,242.5 Z"/></g>
<g><path style="opacity:1" fill="#0384d9" d="M 413.5,263.5 C 414.783,265.623 416.283,267.623 418,269.5C 418.71,268.027 419.876,267.36 421.5,267.5C 421.5,268.833 421.5,270.167 421.5,271.5C 420.167,271.5 418.833,271.5 417.5,271.5C 418.994,277.714 418.327,283.714 415.5,289.5C 417.356,292.036 417.689,294.702 416.5,297.5C 415.377,295.711 414.044,295.378 412.5,296.5C 412.838,298.655 412.838,300.989 412.5,303.5C 410.833,303.5 409.167,303.5 407.5,303.5C 408.129,305.986 409.129,308.319 410.5,310.5C 410.14,313.079 409.474,315.579 408.5,318C 406.26,319.942 404.927,322.442 404.5,325.5C 403.808,324.975 403.308,324.308 403,323.5C 402.667,326.167 402.333,328.833 402,331.5C 399.391,329.519 398.224,326.852 398.5,323.5C 397.022,323.238 395.689,323.571 394.5,324.5C 393.965,326.271 393.131,326.604 392,325.5C 391.667,326.5 391.333,327.5 391,328.5C 390.667,328.167 390.333,327.833 390,327.5C 389.667,329.5 389.333,331.5 389,333.5C 387.517,324.213 387.184,314.879 388,305.5C 390.042,303.396 392.542,302.229 395.5,302C 399.548,301.566 403.548,301.566 407.5,302C 408.951,299.606 408.618,297.439 406.5,295.5C 409.338,294.93 411.004,293.263 411.5,290.5C 411.36,288.97 410.693,287.97 409.5,287.5C 409.38,286.414 408.713,285.747 407.5,285.5C 406.584,285.543 405.917,285.876 405.5,286.5C 404.417,286.539 403.417,286.873 402.5,287.5C 401.833,286.167 401.167,284.833 400.5,283.5C 400.167,284 399.833,284.5 399.5,285C 399.913,286.796 399.913,288.463 399.5,290C 400.833,290.667 401.833,291.667 402.5,293C 401.382,294.074 400.382,295.24 399.5,296.5C 398.246,294.741 398.579,293.241 400.5,292C 398.591,291.552 397.424,292.385 397,294.5C 396.333,291.833 395.667,291.833 395,294.5C 394.005,291.23 393.172,287.897 392.5,284.5C 390.313,286.706 389.146,289.039 389,291.5C 388.005,288.23 387.172,284.897 386.5,281.5C 385.614,282.325 385.281,283.325 385.5,284.5C 383.519,279.571 381.519,274.571 379.5,269.5C 384.478,267.011 389.478,264.511 394.5,262C 401.013,261.022 407.346,261.522 413.5,263.5 Z"/></g>
<g><path style="opacity:1" fill="#c0f1fa" d="M 409.5,287.5 C 409.5,288.833 409.5,290.167 409.5,291.5C 405.065,292.078 403.732,290.411 405.5,286.5C 405.917,285.876 406.584,285.543 407.5,285.5C 408.713,285.747 409.38,286.414 409.5,287.5 Z"/></g>
<g><path style="opacity:1" fill="#2f71a0" d="M 134.5,336.5 C 131.065,327.952 128.898,318.952 128,309.5C 127.502,312.817 127.335,316.15 127.5,319.5C 125.651,303.697 127.817,288.364 134,273.5C 134.5,294.497 134.667,315.497 134.5,336.5 Z"/></g>
<g><path style="opacity:1" fill="#0580d5" d="M 114.5,308.5 C 114.5,314.5 114.5,320.5 114.5,326.5C 113.883,326.611 113.383,326.944 113,327.5C 112.667,324.833 112.333,322.167 112,319.5C 111.51,320.793 111.343,322.127 111.5,323.5C 107.497,323.971 104.331,325.971 102,329.5C 100.257,327.773 98.4236,327.106 96.5,327.5C 93.9328,324.905 94.2661,322.572 97.5,320.5C 96.9747,319.808 96.3081,319.308 95.5,319C 96.3402,317.334 95.8402,317.167 94,318.5C 93.7811,319.938 93.2811,321.271 92.5,322.5C 91.8589,321.007 90.8589,320.007 89.5,319.5C 87.9291,317.365 86.5957,315.032 85.5,312.5C 88.4445,310.653 90.4445,307.986 91.5,304.5C 100.063,300.645 107.229,302.312 113,309.5C 113.383,308.944 113.883,308.611 114.5,308.5 Z"/></g>
<g><path style="opacity:1" fill="#77b4d5" d="M 315.5,299.5 C 320.896,305.898 326.896,311.565 333.5,316.5C 331.901,316.232 330.568,316.566 329.5,317.5C 323.133,312.463 317.799,306.463 313.5,299.5C 313.97,298.537 314.637,298.537 315.5,299.5 Z"/></g>
<g><path style="opacity:1" fill="#151a2e" d="M 155.5,133.5 C 154.91,134.766 154.41,136.099 154,137.5C 153.5,224.499 153.333,311.499 153.5,398.5C 153.5,398.833 153.5,399.167 153.5,399.5C 152.501,311.002 152.167,222.335 152.5,133.5C 153.5,133.5 154.5,133.5 155.5,133.5 Z"/></g>
<g><path style="opacity:1" fill="#020f34" d="M 227.5,191.5 C 227.5,223.5 227.5,255.5 227.5,287.5C 227.5,299.5 227.5,311.5 227.5,323.5C 257.664,324.664 287.997,324.831 318.5,324C 317.627,322.955 316.627,322.122 315.5,321.5C 314.833,321.5 314.5,321.167 314.5,320.5C 314.804,319.85 315.137,319.183 315.5,318.5C 311.587,312.789 307.254,308.289 302.5,305C 304.273,301.616 303.273,299.449 299.5,298.5C 298.948,296.667 298.115,295 297,293.5C 296.405,292.101 296.572,290.768 297.5,289.5C 295.47,286.138 294.803,282.638 295.5,279C 294.445,274.501 293.445,270.001 292.5,265.5C 293.167,265.167 293.833,264.833 294.5,264.5C 293.394,260.223 293.228,255.89 294,251.5C 295.385,246.239 296.385,240.906 297,235.5C 299.191,231.427 300.691,227.094 301.5,222.5C 302.5,222.5 303.5,222.5 304.5,222.5C 304.201,220.396 304.534,218.396 305.5,216.5C 308.673,213.497 310.839,209.83 312,205.5C 312.667,207.167 312.667,208.833 312,210.5C 310.263,213.397 308.763,216.397 307.5,219.5C 307.808,220.308 308.308,220.975 309,221.5C 309.893,220.289 310.726,220.289 311.5,221.5C 310.395,222.892 309.061,224.059 307.5,225C 310.257,225.782 312.757,225.282 315,223.5C 317.086,225.249 319.419,226.583 322,227.5C 324.478,225.476 326.978,225.31 329.5,227C 325.383,227.549 324.716,229.216 327.5,232C 326.975,232.692 326.308,233.192 325.5,233.5C 322.941,230.887 319.941,229.387 316.5,229C 315.667,230.5 314.5,231.667 313,232.5C 310.864,238.046 309.198,243.713 308,249.5C 307.716,258.916 309.216,268.083 312.5,277C 313.13,278.31 314.13,279.144 315.5,279.5C 316.458,279.953 317.292,280.619 318,281.5C 318.999,284.832 320.499,287.832 322.5,290.5C 322.5,292.167 322.5,293.833 322.5,295.5C 320.799,295.966 319.299,295.966 318,295.5C 316.125,296.73 315.292,298.064 315.5,299.5C 314.637,298.537 313.97,298.537 313.5,299.5C 317.799,306.463 323.133,312.463 329.5,317.5C 338.642,322.907 347.975,328.073 357.5,333C 360.965,335.463 364.131,338.296 367,341.5C 367.667,340.833 367.667,340.167 367,339.5C 360.162,331.345 351.995,325.012 342.5,320.5C 347.227,320.909 351.56,322.409 355.5,325C 359.309,328.137 363.142,331.303 367,334.5C 368.726,333.424 370.559,333.257 372.5,334C 365.723,337.654 366.39,339.988 374.5,341C 373.833,341.333 373.167,341.667 372.5,342C 373.313,343.314 374.313,344.481 375.5,345.5C 374.137,346.893 373.304,348.559 373,350.5C 372.333,349.167 371.667,349.167 371,350.5C 370.333,347.833 369.667,347.833 369,350.5C 365.249,346.559 364.082,347.393 365.5,353C 364.5,354.667 363.5,356.333 362.5,358C 363.187,359.162 363.353,360.328 363,361.5C 360.918,358.275 359.918,354.942 360,351.5C 359.365,352.966 358.531,354.3 357.5,355.5C 358.246,356.736 358.579,358.07 358.5,359.5C 357.728,358.306 356.728,357.306 355.5,356.5C 355.5,355.833 355.5,355.167 355.5,354.5C 355.461,353.417 355.127,352.417 354.5,351.5C 347.811,344.977 339.811,340.811 330.5,339C 332.167,338.667 333.833,338.333 335.5,338C 325.151,337.168 314.817,337.334 304.5,338.5C 309.467,339.329 314.467,339.829 319.5,340C 318.228,341.046 316.728,341.546 315,341.5C 284.521,341.158 253.355,341.158 221.5,341.5C 221.949,339.023 221.283,337.023 219.5,335.5C 217.717,337.023 217.051,339.023 217.5,341.5C 216.325,341.719 215.325,341.386 214.5,340.5C 215.855,339.325 215.688,338.325 214,337.5C 213.643,297.815 213.477,258.149 213.5,218.5C 213.887,213.791 214.554,209.125 215.5,204.5C 215.32,203.446 214.987,202.446 214.5,201.5C 214.817,197.059 215.817,192.892 217.5,189C 215.044,187.087 215.378,185.421 218.5,184C 218.167,183.667 217.833,183.333 217.5,183C 219.81,182.503 222.143,182.337 224.5,182.5C 224.351,183.552 224.517,184.552 225,185.5C 227.729,186.525 230.729,186.525 234,185.5C 234.833,187.667 236.333,189.167 238.5,190C 234.644,190.177 230.977,190.677 227.5,191.5 Z"/></g>
<g><path style="opacity:1" fill="#8fb9d4" d="M 315.5,321.5 C 316.627,322.122 317.627,322.955 318.5,324C 287.997,324.831 257.664,324.664 227.5,323.5C 236.5,323.5 245.5,323.5 254.5,323.5C 275.194,324.155 295.527,323.488 315.5,321.5 Z"/></g>
<g><path style="opacity:1" fill="#a2e2fc" d="M 284.5,263.5 C 285.167,263.5 285.5,263.833 285.5,264.5C 287.798,287.099 297.465,305.766 314.5,320.5C 314.5,321.167 314.833,321.5 315.5,321.5C 295.527,323.488 275.194,324.155 254.5,323.5C 254.414,322.504 254.748,321.671 255.5,321C 256.766,320.691 257.933,320.191 259,319.5C 260.98,316.396 262.48,313.063 263.5,309.5C 266.309,308.236 268.476,306.236 270,303.5C 270.333,303.833 270.667,304.167 271,304.5C 271.6,300.238 273.767,297.071 277.5,295C 276.941,294.275 276.608,293.442 276.5,292.5C 278.273,287.761 280.106,283.094 282,278.5C 282.743,276.559 282.576,274.726 281.5,273C 283.019,269.949 284.019,266.782 284.5,263.5 Z"/></g>
<g><path style="opacity:1" fill="#09295d" d="M 301.5,218.5 C 299.793,224.313 297.627,229.979 295,235.5C 292.666,246.183 290.333,256.85 288,267.5C 287.148,266.429 286.315,265.429 285.5,264.5C 285.5,263.833 285.167,263.5 284.5,263.5C 284.334,257.491 284.501,251.491 285,245.5C 285.406,242.258 286.239,239.258 287.5,236.5C 289.411,236.426 290.578,235.426 291,233.5C 291.61,230.173 292.11,226.839 292.5,223.5C 294.144,223.286 295.644,223.62 297,224.5C 297.791,221.896 299.291,219.896 301.5,218.5 Z"/></g>
<g><path style="opacity:1" fill="#dfe6ed" d="M 333.5,316.5 C 336.352,318.091 339.352,319.424 342.5,320.5C 351.995,325.012 360.162,331.345 367,339.5C 367.667,340.167 367.667,340.833 367,341.5C 364.131,338.296 360.965,335.463 357.5,333C 347.975,328.073 338.642,322.907 329.5,317.5C 330.568,316.566 331.901,316.232 333.5,316.5 Z"/></g>
<g><path style="opacity:1" fill="#0c8ddb" d="M 114.5,326.5 C 115.601,335.334 117.601,344.001 120.5,352.5C 116.878,353.659 113.211,353.825 109.5,353C 107.97,350.648 106.303,348.481 104.5,346.5C 98.3053,338.27 93.3053,329.27 89.5,319.5C 90.8589,320.007 91.8589,321.007 92.5,322.5C 93.2811,321.271 93.7811,319.938 94,318.5C 95.8402,317.167 96.3402,317.334 95.5,319C 96.3081,319.308 96.9747,319.808 97.5,320.5C 94.2661,322.572 93.9328,324.905 96.5,327.5C 98.4236,327.106 100.257,327.773 102,329.5C 104.331,325.971 107.497,323.971 111.5,323.5C 111.343,322.127 111.51,320.793 112,319.5C 112.333,322.167 112.667,324.833 113,327.5C 113.383,326.944 113.883,326.611 114.5,326.5 Z"/></g>
<g><path style="opacity:1" fill="#e8f5f9" d="M 134.5,336.5 C 134.666,341.179 134.499,345.845 134,350.5C 129.478,340.653 127.311,330.32 127.5,319.5C 127.335,316.15 127.502,312.817 128,309.5C 128.898,318.952 131.065,327.952 134.5,336.5 Z"/></g>
<g><path style="opacity:1" fill="#f9fcfa" d="M 209.5,342.5 C 252.168,342.333 294.835,342.5 337.5,343C 344.435,345.448 350.435,349.281 355.5,354.5C 355.5,355.167 355.5,355.833 355.5,356.5C 355.894,363.751 352.561,367.751 345.5,368.5C 291.823,369.162 238.49,368.496 185.5,366.5C 186.167,365.5 186.833,364.5 187.5,363.5C 194.86,356.472 202.193,349.472 209.5,342.5 Z"/></g>
<g><path style="opacity:1" fill="#a6ecf6" d="M 185.5,366.5 C 238.49,368.496 291.823,369.162 345.5,368.5C 345.5,368.833 345.5,369.167 345.5,369.5C 290.833,369.5 236.167,369.5 181.5,369.5C 181.5,368.833 181.5,368.167 181.5,367.5C 182.959,367.567 184.292,367.234 185.5,366.5 Z"/></g>
<g><path style="opacity:1" fill="#4adcfa" d="M 181.5,369.5 C 236.167,369.5 290.833,369.5 345.5,369.5C 347.199,369.34 348.866,369.506 350.5,370C 346.5,370.667 346.5,371.333 350.5,372C 348.616,372.216 346.949,372.883 345.5,374C 346.167,374.667 346.833,375.333 347.5,376C 346,377.167 344.5,378.333 343,379.5C 340.637,377.093 338.137,376.926 335.5,379C 337.774,379.47 339.774,380.47 341.5,382C 340.167,382.333 338.833,382.667 337.5,383C 338.888,383.889 338.722,384.389 337,384.5C 336.228,384.355 335.561,384.022 335,383.5C 334.027,385.392 333.36,387.392 333,389.5C 332.667,388.5 332.333,387.5 332,386.5C 331.345,388.628 330.511,390.628 329.5,392.5C 320.167,392.5 310.833,392.5 301.5,392.5C 293.61,385.312 284.277,381.645 273.5,381.5C 265.253,381.132 258.253,383.799 252.5,389.5C 251.167,390.5 249.833,391.5 248.5,392.5C 244.766,392.677 241.099,392.344 237.5,391.5C 235.704,390.207 234.037,388.707 232.5,387C 215.395,378.099 199.728,379.933 185.5,392.5C 183.04,392.699 180.707,393.365 178.5,394.5C 176.808,396.359 175.308,398.359 174,400.5C 172.627,400.596 171.127,400.43 169.5,400C 168.5,401.667 167.5,403.333 166.5,405C 162.179,405.499 157.846,405.666 153.5,405.5C 153.5,403.5 153.5,401.5 153.5,399.5C 153.5,399.167 153.5,398.833 153.5,398.5C 161.806,389.86 170.139,381.193 178.5,372.5C 179.833,371.833 180.833,370.833 181.5,369.5 Z"/></g>
<g><path style="opacity:1" fill="#63e4fb" d="M 355.5,356.5 C 356.728,357.306 357.728,358.306 358.5,359.5C 361.395,367.561 362.228,375.894 361,384.5C 357.035,395.972 349.201,402.972 337.5,405.5C 333.154,405.666 328.821,405.499 324.5,405C 330.479,401.03 336.479,397.03 342.5,393C 338.179,392.501 333.846,392.334 329.5,392.5C 330.511,390.628 331.345,388.628 332,386.5C 332.333,387.5 332.667,388.5 333,389.5C 333.36,387.392 334.027,385.392 335,383.5C 335.561,384.022 336.228,384.355 337,384.5C 338.722,384.389 338.888,383.889 337.5,383C 338.833,382.667 340.167,382.333 341.5,382C 339.774,380.47 337.774,379.47 335.5,379C 338.137,376.926 340.637,377.093 343,379.5C 344.5,378.333 346,377.167 347.5,376C 346.833,375.333 346.167,374.667 345.5,374C 346.949,372.883 348.616,372.216 350.5,372C 346.5,371.333 346.5,370.667 350.5,370C 348.866,369.506 347.199,369.34 345.5,369.5C 345.5,369.167 345.5,368.833 345.5,368.5C 352.561,367.751 355.894,363.751 355.5,356.5 Z"/></g>
<g><path style="opacity:1" fill="#36b0de" d="M 301.5,393.5 C 301.5,393.167 301.5,392.833 301.5,392.5C 310.833,392.5 320.167,392.5 329.5,392.5C 333.846,392.334 338.179,392.501 342.5,393C 336.479,397.03 330.479,401.03 324.5,405C 328.821,405.499 333.154,405.666 337.5,405.5C 333.03,406.486 328.363,406.819 323.5,406.5C 323.082,405.778 322.416,405.278 321.5,405C 325.315,401.545 325.482,398.712 322,396.5C 318.386,402.258 315.72,402.258 314,396.5C 312.333,397.5 311,398.833 310,400.5C 307.88,397.205 305.046,394.872 301.5,393.5 Z"/></g>
<g><path style="opacity:1" fill="#39aedc" d="M 185.5,392.5 C 182.662,396.852 179.995,401.352 177.5,406C 169.323,406.823 161.323,406.656 153.5,405.5C 157.846,405.666 162.179,405.499 166.5,405C 167.5,403.333 168.5,401.667 169.5,400C 171.127,400.43 172.627,400.596 174,400.5C 175.308,398.359 176.808,396.359 178.5,394.5C 180.707,393.365 183.04,392.699 185.5,392.5 Z"/></g>
<g><path style="opacity:1" fill="#2890c6" d="M 301.5,393.5 C 305.046,394.872 307.88,397.205 310,400.5C 311,398.833 312.333,397.5 314,396.5C 315.72,402.258 318.386,402.258 322,396.5C 325.482,398.712 325.315,401.545 321.5,405C 322.416,405.278 323.082,405.778 323.5,406.5C 318.489,406.666 313.489,406.499 308.5,406C 306.802,401.434 304.469,397.267 301.5,393.5 Z"/></g>
<g><path style="opacity:1" fill="#0a0f2a" d="M 223.5,394.5 C 210.935,388.578 200.602,391.245 192.5,402.5C 190.975,404.216 189.975,406.216 189.5,408.5C 188.662,408.842 188.328,409.508 188.5,410.5C 187.566,411.568 187.232,412.901 187.5,414.5C 195.66,415.166 203.993,415.5 212.5,415.5C 221.398,415.471 230.064,414.804 238.5,413.5C 239.184,415.185 240.517,416.185 242.5,416.5C 243.722,414.022 245.722,413.022 248.5,413.5C 248.167,410.833 247.833,408.167 247.5,405.5C 251.971,405.328 252.304,404.494 248.5,403C 249.574,402.261 250.241,401.261 250.5,400C 249.7,398.169 248.7,396.335 247.5,394.5C 247.833,393.833 248.167,393.167 248.5,392.5C 249.833,391.5 251.167,390.5 252.5,389.5C 252.369,390.239 252.536,390.906 253,391.5C 258.014,390.843 263.181,390.843 268.5,391.5C 270.378,390.792 272.045,389.626 273.5,388C 270.772,387.361 270.272,386.194 272,384.5C 273.892,385.617 274.725,387.284 274.5,389.5C 277.85,389.335 281.183,389.502 284.5,390C 286.019,391.351 287.352,392.851 288.5,394.5C 293.787,395.419 296.454,398.419 296.5,403.5C 298.346,403.222 299.68,403.889 300.5,405.5C 300.167,408.833 299.833,412.167 299.5,415.5C 284.848,416.499 270.182,416.833 255.5,416.5C 255.5,417.5 255.5,418.5 255.5,419.5C 249.605,418.946 243.938,419.612 238.5,421.5C 234.158,419.25 229.658,418.917 225,420.5C 222.251,417.959 218.918,416.959 215,417.5C 207.207,419.441 199.373,419.775 191.5,418.5C 191.5,419.5 191.5,420.5 191.5,421.5C 187.295,421.459 185.295,419.292 185.5,415C 186.857,411.362 187.524,407.529 187.5,403.5C 188.675,403.719 189.675,403.386 190.5,402.5C 187.672,398.802 188.005,398.135 191.5,400.5C 193.85,397.316 196.684,394.65 200,392.5C 207.754,390.283 215.588,389.95 223.5,391.5C 223.5,392.5 223.5,393.5 223.5,394.5 Z"/></g>
<g><path style="opacity:1" fill="#6c3e22" d="M 188.5,410.5 C 188.5,411.5 188.5,412.5 188.5,413.5C 204.5,413.5 220.5,413.5 236.5,413.5C 220.342,414.496 204.009,414.83 187.5,414.5C 187.232,412.901 187.566,411.568 188.5,410.5 Z"/></g>
<g><path style="opacity:1" fill="#d17c2b" d="M 253.5,405.5 C 253.833,405.5 254.167,405.5 254.5,405.5C 253.551,407.737 252.884,410.071 252.5,412.5C 267.5,412.5 282.5,412.5 297.5,412.5C 297.5,411.167 297.5,409.833 297.5,408.5C 298.339,409.641 299.006,410.974 299.5,412.5C 299.376,413.107 299.043,413.44 298.5,413.5C 282.5,413.5 266.5,413.5 250.5,413.5C 250.5,412.5 250.5,411.5 250.5,410.5C 250.75,408.326 251.75,406.659 253.5,405.5 Z"/></g>
<g><path style="opacity:1" fill="#d27b2a" d="M 231.5,402.5 C 232.5,402.833 233.167,403.5 233.5,404.5C 235.353,407.208 236.353,410.208 236.5,413.5C 220.5,413.5 204.5,413.5 188.5,413.5C 188.5,412.5 188.5,411.5 188.5,410.5C 188.328,409.508 188.662,408.842 189.5,408.5C 189.5,409.833 189.5,411.167 189.5,412.5C 204.5,412.5 219.5,412.5 234.5,412.5C 234.043,409.594 233.043,406.928 231.5,404.5C 231.5,403.833 231.5,403.167 231.5,402.5 Z"/></g>
<g><path style="opacity:1" fill="#e98310" d="M 231.5,404.5 C 233.043,406.928 234.043,409.594 234.5,412.5C 219.5,412.5 204.5,412.5 189.5,412.5C 189.5,411.167 189.5,409.833 189.5,408.5C 190.5,408.167 191.167,407.5 191.5,406.5C 194.038,406.507 196.538,406.841 199,407.5C 203.332,405.792 207.832,404.792 212.5,404.5C 219.175,405.775 225.508,405.775 231.5,404.5 Z"/></g>
<g><path style="opacity:1" fill="#e98411" d="M 297.5,408.5 C 297.5,409.833 297.5,411.167 297.5,412.5C 282.5,412.5 267.5,412.5 252.5,412.5C 252.884,410.071 253.551,407.737 254.5,405.5C 255.496,405.586 256.329,405.252 257,404.5C 258.299,405.98 259.966,406.646 262,406.5C 265.855,405.124 269.855,404.458 274,404.5C 280.403,405.512 286.736,405.512 293,404.5C 293.876,406.635 295.376,407.969 297.5,408.5 Z"/></g>
<g><path style="opacity:1" fill="#f4ba5c" d="M 294.5,403.5 C 296.25,404.659 297.25,406.326 297.5,408.5C 295.376,407.969 293.876,406.635 293,404.5C 286.736,405.512 280.403,405.512 274,404.5C 269.855,404.458 265.855,405.124 262,406.5C 259.966,406.646 258.299,405.98 257,404.5C 256.329,405.252 255.496,405.586 254.5,405.5C 254.962,404.12 255.962,403.453 257.5,403.5C 259.307,403.972 261.14,404.306 263,404.5C 270.816,403.784 278.649,403.284 286.5,403C 289.143,401.462 291.81,401.629 294.5,403.5 Z"/></g>
<g><path style="opacity:1" fill="#f4d38d" d="M 293.5,401.5 C 294.338,401.842 294.672,402.508 294.5,403.5C 291.81,401.629 289.143,401.462 286.5,403C 278.649,403.284 270.816,403.784 263,404.5C 261.14,404.306 259.307,403.972 257.5,403.5C 255.962,403.453 254.962,404.12 254.5,405.5C 254.167,405.5 253.833,405.5 253.5,405.5C 253.733,403.938 254.4,402.605 255.5,401.5C 263.035,399.847 270.702,398.847 278.5,398.5C 283.721,398.464 288.721,399.464 293.5,401.5 Z"/></g>
<g><path style="opacity:1" fill="#f8be5e" d="M 231.5,402.5 C 231.5,403.167 231.5,403.833 231.5,404.5C 225.508,405.775 219.175,405.775 212.5,404.5C 207.832,404.792 203.332,405.792 199,407.5C 196.538,406.841 194.038,406.507 191.5,406.5C 191.611,405.883 191.944,405.383 192.5,405C 202.813,404.034 213.146,403.368 223.5,403C 226.01,401.255 228.676,401.089 231.5,402.5 Z"/></g>
<g><path style="opacity:1" fill="#f4d597" d="M 229.5,400.5 C 230.5,400.833 231.167,401.5 231.5,402.5C 228.676,401.089 226.01,401.255 223.5,403C 213.146,403.368 202.813,404.034 192.5,405C 191.944,405.383 191.611,405.883 191.5,406.5C 191.167,407.5 190.5,408.167 189.5,408.5C 189.975,406.216 190.975,404.216 192.5,402.5C 204.523,396.73 216.857,396.063 229.5,400.5 Z"/></g>
<g><path style="opacity:1" fill="#f7eccc" d="M 290.5,398.5 C 291.833,399.167 292.833,400.167 293.5,401.5C 288.721,399.464 283.721,398.464 278.5,398.5C 270.702,398.847 263.035,399.847 255.5,401.5C 256.167,400.167 257.167,399.167 258.5,398.5C 258.369,399.239 258.536,399.906 259,400.5C 261.878,397.722 265.378,396.056 269.5,395.5C 276.548,396.145 283.548,397.145 290.5,398.5 Z"/></g>
<g><path style="opacity:1" fill="#f7f5e9" d="M 223.5,394.5 C 225.882,396.215 227.882,398.215 229.5,400.5C 216.857,396.063 204.523,396.73 192.5,402.5C 200.602,391.245 210.935,388.578 223.5,394.5 Z"/></g>
<g><path style="opacity:1" fill="#f6f7f4" d="M 268.5,391.5 C 277.053,390.463 284.387,392.796 290.5,398.5C 283.548,397.145 276.548,396.145 269.5,395.5C 265.378,396.056 261.878,397.722 259,400.5C 258.536,399.906 258.369,399.239 258.5,398.5C 261.168,395.17 264.502,392.837 268.5,391.5 Z"/></g>
<g><path style="opacity:1" fill="#3388ba" d="M 237.5,391.5 C 241.099,392.344 244.766,392.677 248.5,392.5C 248.167,393.167 247.833,393.833 247.5,394.5C 246.017,396.094 244.517,397.76 243,399.5C 240.946,396.953 239.113,394.286 237.5,391.5 Z"/></g>
<g><path style="opacity:1" fill="#6d4021" d="M 250.5,410.5 C 250.5,411.5 250.5,412.5 250.5,413.5C 266.5,413.5 282.5,413.5 298.5,413.5C 282.342,414.496 266.009,414.83 249.5,414.5C 249.232,412.901 249.566,411.568 250.5,410.5 Z"/></g>
<g><path style="opacity:1" fill="#190a14" d="M 233.5,404.5 C 237.39,406.104 239.056,409.104 238.5,413.5C 230.064,414.804 221.398,415.471 212.5,415.5C 203.993,415.5 195.66,415.166 187.5,414.5C 204.009,414.83 220.342,414.496 236.5,413.5C 236.353,410.208 235.353,407.208 233.5,404.5 Z"/></g>
</svg>
